<?xml version="1.0" encoding="utf-8"?>
<!-- Generator: Adobe Illustrator 16.0.0, SVG Export Plug-In . SVG Version: 6.00 Build 0)  -->
<!DOCTYPE svg PUBLIC "-//W3C//DTD SVG 1.1//EN" "http://www.w3.org/Graphics/SVG/1.1/DTD/svg11.dtd">
<svg version="1.1" id="Ebene_1" xmlns="http://www.w3.org/2000/svg" xmlns:xlink="http://www.w3.org/1999/xlink" x="0px" y="0px"
	 width="420px" height="190.001px" viewBox="0 0 420 190.001" enable-background="new 0 0 420 190.001" xml:space="preserve">
<ellipse fill="#FFFFFF" cx="210" cy="95.001" rx="83" ry="85"/>
<path fill="#F9D616" d="M14.711,60l390.578,0.002C414.782,70.833,420,82.642,420,95.001c0,12.36-5.226,24.168-14.72,35
	l-390.567,0.003C5.218,119.172,0,107.362,0,95.001C0,82.641,5.218,70.833,14.711,60"/>
<g>
	<path d="M210,10c33.652,0,62.604,21,75.633,50h119.656C374.485,25.001,298.658,0,210,0C121.343,0,45.517,25.001,14.711,60.001
		h119.656C147.396,31.001,176.348,10,210,10z"/>
	<path d="M210,180c-33.651,0-62.603-20.999-75.631-49.999H14.713C45.521,165.001,121.345,190,210,190
		c88.657,0,164.483-24.852,195.289-59.999l-119.657,0.001C272.604,159.48,243.651,180,210,180z"/>
</g>
<polygon points="362,70.001 362,120.001 405,120.001 405,108.001 382,108.001 382,70.001 "/>
<polygon points="139,70.001 139,120.001 188,120.001 188,108.001 160,108.001 160,102.001 188,102.001 188,92.001 160,92.001 
	160,82.001 188,82.001 188,70.001 "/>
<g>
	<path d="M281,70.001c-6,0-47,0-47,0v50c0,0,38,0,46,0s9-7,9-10s0-29,0-29C289,74.001,285,70.001,281,70.001z M268,105.001
		c0,0,0,2-2,2s-12,0-12,0v-23c0,0,10,0,12,0s2,1,2,2S268,105.001,268,105.001z"/>
</g>
<rect x="201" y="70.001" width="21" height="50"/>
<polygon points="302,70.001 302,120.001 351,120.001 351,108.001 323,108.001 323,102.001 351,102.001 351,92.001 323,92.001 
	323,82.001 351,82.001 351,70.001 "/>
<g>
	<path d="M124,70.001c-5,0-51,0-51,0v50h21l0-17c0,0,28,0,30,0c5,0,5-4,5-6c0-7,0-19,0-21S129,70.001,124,70.001z M106,92.001
		c-1,0-12,0-12,0v-10c0,0,10,0,12,0s3,3,3,5S108,92.001,106,92.001z"/>
</g>
<path d="M15,75.001c0,0,0-5,5-5s40,0,40,0v12c0,0-21,0-22,0c-0.913,0-2,1-2,3c0,1,0,3,0,4c0,2,1,3,2,3s18,0,18,0s5,0,5,3s0,15,0,19
	s-4,6-6,6H15v-12h25v-6c0,0-19,0-21,0c-3,0-4-3-4-7C15,92.001,15,75.001,15,75.001z"/>
</svg>
