<?xml version="1.0" encoding="UTF-8"?>
<svg id="Calque_1" data-name="Calque 1" xmlns="http://www.w3.org/2000/svg" viewBox="0 0 2223.63 523.71">
  <defs>
    <style>
      .cls-1 {
        fill: #fff;
      }

      .cls-2 {
        fill: #bfa27b;
      }

      .cls-3 {
        fill: #37424b;
      }

      .cls-4 {
        fill: #ed1b34;
      }
    </style>
  </defs>
  <g>
    <g>
      <path class="cls-3" d="m14.61,445.02h16.44l-11.87,62.54h29.56l-2.74,14.38H0l14.61-76.92Z"/>
      <path class="cls-3" d="m75.12,501.97l-9.13,19.97h-17.46l37.43-76.92h21.12l9.01,76.92h-17.23l-1.6-19.97h-22.14Zm21.46-12.55l-1.48-16.55c-.35-4.21-.8-10.38-1.14-15.06h-.23c-1.95,4.68-4.11,10.61-6.16,15.06l-7.65,16.55h16.67Z"/>
      <path class="cls-3" d="m135.05,445.02h16.44l-11.87,62.54h29.56l-2.74,14.38h-46l14.61-76.92Z"/>
      <path class="cls-3" d="m186.26,445.02h16.44l-11.87,62.54h29.56l-2.74,14.38h-46l14.61-76.92Z"/>
      <path class="cls-3" d="m272.84,489.31h-27.39l-3.53,18.6h30.7l-2.63,14.04h-47.14l14.61-76.92h45.54l-2.74,14.04h-28.99l-3.19,16.43h27.39l-2.63,13.81Z"/>
      <path class="cls-3" d="m343.12,521.95l4.69-31.73c1.26-8.32,2.97-18.94,5.13-30.01h-.34c-4.22,9.93-9.01,20.54-13.24,28.99l-15.75,31.49h-12.78l-2.74-31.15c-.68-8.45-1.25-19.06-1.71-29.33h-.23c-2.16,10.16-4.45,21.69-6.39,30.01l-7.64,31.73h-15.07l19.29-76.92h22.03l2.39,29.22c.45,7.19,1.26,15.98,1.37,24.54h.45c2.97-8.56,7.08-17.57,10.39-24.54l14.26-29.22h22.26l-10.39,76.92h-15.98Z"/>
      <path class="cls-3" d="m390.22,501.97l-9.13,19.97h-17.46l37.43-76.92h21.12l9.01,76.92h-17.23l-1.6-19.97h-22.14Zm21.46-12.55l-1.48-16.55c-.35-4.21-.8-10.38-1.14-15.06h-.23c-1.95,4.68-4.11,10.61-6.16,15.06l-7.65,16.55h16.67Z"/>
      <path class="cls-3" d="m435.54,521.95l14.61-76.92h19.29l10.16,29.33c3.08,9.82,5.13,17.81,6.95,26.25h.35c.34-7.87,1.37-16.32,3.53-27.62l5.25-27.96h15.29l-14.49,76.92h-17l-10.73-30.7c-3.42-10.38-5.48-17.35-7.53-26.82l-.34.11c-.92,7.42-2.74,18.37-5.03,30.47l-5.02,26.93h-15.3Z"/>
      <path class="cls-3" d="m523.37,446.17c6.51-1.14,13.81-1.71,21.23-1.71,11.98,0,21.57,2.74,28.07,8.33,6.16,5.13,10.04,12.77,10.16,24.08,0,14.83-6.27,27.73-15.86,35.38-8.9,7.08-20.2,10.16-36.86,10.16-9.24,0-17.23-.68-21-1.37l14.26-74.86Zm4.57,62.54c1.94.34,4.33.45,7.18.45,8.91,0,16.78-3.19,21.8-9.01,5.25-5.93,7.99-13.92,7.99-23.17,0-12.09-6.74-19.29-20.31-19.29-2.85,0-5.25.11-6.96.45l-9.69,50.56Z"/>
      <path class="cls-3" d="m614.99,446.28c5.48-1.03,12.56-1.82,20.2-1.82s13.93,1.03,19.06,4.11c5.14,2.63,8.9,7.53,8.9,14.03,0,9.7-7.19,15.86-15.51,18.26v.34c7.42,2.29,12.09,8.33,12.09,16.78s-4.45,14.26-10.5,18.26c-6.51,4.34-16.2,6.16-28.99,6.16-8.67,0-15.64-.57-19.4-1.37l14.14-74.75Zm4.11,63c1.94.23,3.88.35,6.27.35,8.9,0,17.01-3.54,17.01-12.1,0-7.64-6.39-9.93-14.04-9.93h-5.13l-4.11,21.69Zm6.62-33.67h5.47c9.02,0,15.18-3.87,15.18-10.38,0-5.59-4.56-7.98-10.85-7.98-2.85,0-5.13.23-6.39.57l-3.42,17.8Z"/>
      <path class="cls-3" d="m678.5,446.51c5.14-1.26,12.9-2.05,20.54-2.05s14.84,1.14,20.2,4.45c5.03,2.97,8.56,7.87,8.56,15.06,0,11.41-7.64,18.49-17.46,21.69v.45c4.56,1.95,6.51,7.08,7.3,14.04.92,8.56,1.6,18.6,2.97,21.8h-16.89c-.69-2.05-1.48-8.67-2.29-18.14-.68-9.36-3.88-12.22-10.38-12.22h-5.02l-5.71,30.36h-16.33l14.49-75.44Zm9.93,32.76h6.85c8.9,0,15.4-5.37,15.4-12.9,0-6.16-5.24-8.9-11.75-8.9-3.08,0-5.02.23-6.39.57l-4.11,21.23Z"/>
      <path class="cls-3" d="m777.29,489.31h-27.39l-3.53,18.6h30.7l-2.63,14.04h-47.14l14.61-76.92h45.54l-2.74,14.04h-28.99l-3.19,16.43h27.38l-2.62,13.81Z"/>
      <path class="cls-3" d="m794.15,521.95l-2.97-76.92h16.55l.11,34.24c-.11,9.24-.24,18.03-.46,24.88h.23c2.63-7.53,5.48-15.3,9.02-24.65l13.8-34.47h18.03l-.23,34.36c-.11,9.24-.34,16.89-.68,24.43h.23c2.63-7.99,5.48-16.33,8.45-24.54l13.35-34.24h17.23l-33.9,76.92h-17.91l-.57-31.62c0-9.01.23-16.77.68-25.45h-.23c-2.85,8.22-5.48,16.43-9.35,25.91l-13.12,31.15h-18.26Z"/>
      <path class="cls-3" d="m908.28,445.02l-14.61,76.92h-16.44l14.61-76.92h16.44Z"/>
      <path class="cls-3" d="m906.18,521.95l14.61-76.92h19.29l10.16,29.33c3.08,9.82,5.13,17.81,6.95,26.25h.35c.34-7.87,1.37-16.32,3.53-27.62l5.25-27.96h15.29l-14.49,76.92h-17l-10.73-30.7c-3.42-10.38-5.48-17.35-7.53-26.82l-.34.11c-.92,7.42-2.74,18.37-5.03,30.47l-5.02,26.93h-15.3Z"/>
      <path class="cls-3" d="m1041.93,518.41c-5.93,1.94-15.17,4.34-24.88,4.34-10.61,0-19.29-2.74-25.68-8.45-6.16-5.48-9.69-13.93-9.69-23.74,0-14.38,5.93-26.83,15.75-35.16,8.66-7.18,20.54-11.18,33.89-11.18,10.04,0,17.46,1.94,20.43,3.42l-4.91,13.93c-3.53-1.6-9.47-3.2-16.32-3.2-7.64,0-14.49,2.17-19.63,6.17-6.62,5.24-11.07,14.38-11.07,24.88,0,12.9,7.64,19.4,19.75,19.4,3.76,0,6.5-.57,8.32-1.37l3.09-16.2h-11.88l2.51-13.12h27.96l-7.64,40.29Z"/>
    </g>
    <g>
      <path class="cls-4" d="m1052.17,195.08c0,107.74-233.19,195.06-520.83,195.06S10.49,302.82,10.49,195.08,243.68,0,531.35,0s520.83,87.33,520.83,195.08"/>
      <polygon class="cls-1" points="123.75 229.17 158.12 229.17 154.27 258.51 91.24 258.51 108.71 125.23 137.38 125.23 123.75 229.17"/>
      <path class="cls-1" d="m229.65,166.42h-.3l-17.4,42.42h23.84l-6.14-42.42Zm-29.07,68.93l-10.64,23.15h-30.42l59.89-133.28h31.28l24.08,133.28h-30.57l-4.13-23.15h-39.49Z"/>
      <polygon class="cls-1" points="314.54 229.17 348.92 229.17 345.06 258.51 282.03 258.51 299.5 125.23 328.17 125.23 314.54 229.17"/>
      <polygon class="cls-1" points="386.93 229.17 421.3 229.17 417.44 258.51 354.41 258.51 371.88 125.23 400.55 125.23 386.93 229.17"/>
      <polygon class="cls-1" points="469.08 154.57 466.17 176.85 498.48 176.85 494.64 206.19 462.33 206.19 459.31 229.18 493.38 229.18 489.54 258.51 426.79 258.51 444.26 125.23 507.01 125.23 503.17 154.57 469.08 154.57"/>
      <polygon class="cls-1" points="536.82 125.23 565.05 125.23 578.09 196.46 611.13 125.23 639.64 125.23 638.85 258.51 610.19 258.51 612.19 181.79 611.9 181.79 575.36 258.51 563.96 258.51 548.71 181.79 548.42 181.79 529.15 258.51 500.64 258.51 536.82 125.23"/>
      <path class="cls-1" d="m711.18,166.42h-.3l-17.4,42.42h23.83l-6.13-42.42Zm-29.08,68.93l-10.64,23.15h-30.41l59.88-133.28h31.3l24.08,133.28h-30.58l-4.13-23.15h-39.49Z"/>
      <polygon class="cls-1" points="782.65 125.23 811.32 125.23 853.14 206.72 853.43 206.72 864.11 125.23 892.8 125.23 875.33 258.51 846.66 258.51 804.85 176.85 804.56 176.85 793.85 258.51 765.18 258.51 782.65 125.23"/>
      <path class="cls-1" d="m926.54,229.17h6.43c17.11,0,33.22-11.31,36.64-37.3,3.11-23.87-8.14-37.31-26.57-37.31h-6.71l-9.78,74.61Zm-15.05-103.95h40.67c30.73,0,52.19,29.17,47.28,66.65-4.9,37.47-34.17,66.64-64.75,66.64h-40.67l17.47-133.28Z"/>
    </g>
  </g>
  <polygon class="cls-2" points="1374.33 .03 1355.67 185.25 1355.01 185.25 1337.03 .03 1301.71 .03 1284.38 183.92 1283.71 183.92 1264.39 .03 1228.75 .03 1254.74 233.22 1305.04 233.22 1318.04 108.96 1318.7 108.96 1331.69 233.22 1380.33 233.22 1406.31 .03 1374.33 .03"/>
  <polygon class="cls-2" points="1420.82 .03 1420.82 233.22 1520.76 233.22 1520.76 199.91 1457.47 199.91 1457.47 131.62 1507.77 131.62 1507.77 98.3 1457.47 98.3 1457.47 33.35 1520.76 33.35 1520.76 .03 1420.82 .03"/>
  <g>
    <path class="cls-2" d="m1631.69,128.28v71.62h20.98c12.33,0,18.99-5.65,18.99-22.98v-20.32c0-21.65-6.99-28.32-23.65-28.32h-16.32Zm0-94.94v61.63h14.33c13.65,0,21.99-6,21.99-24.64v-12.99c0-16.66-5.66-23.99-18.66-23.99h-17.65Zm72.95,20.32v8.33c0,23.98-7.33,38.98-23.65,46.64v.66c19.65,7.67,27.31,24.98,27.31,49.63v18.99c0,35.98-18.99,55.3-55.63,55.3h-57.62V.03h55.3c37.98,0,54.3,17.65,54.3,53.63"/>
    <path class="cls-2" d="m1760.94,33.35v71.62h14.32c13.66,0,21.99-6,21.99-24.65v-22.99c0-16.65-5.65-23.98-18.65-23.98h-17.65Zm39.97,199.87c-2-6-3.33-9.66-3.33-28.65v-36.64c0-21.65-7.33-29.64-23.99-29.64h-12.65v94.94h-36.65V.03h55.3c37.98,0,54.31,17.65,54.31,53.63v18.32c0,23.99-7.67,39.31-23.99,46.98v.66c18.33,7.66,24.32,24.98,24.32,49.3v35.97c0,11.33.33,19.66,4,28.32h-37.31Z"/>
  </g>
  <polygon class="cls-2" points="1853.31 .03 1853.31 233.22 1953.24 233.22 1953.24 199.91 1889.95 199.91 1889.95 131.62 1940.25 131.62 1940.25 98.3 1889.95 98.3 1889.95 33.35 1953.24 33.35 1953.24 .03 1853.31 .03"/>
  <polygon class="cls-2" points="2111.35 .03 2092.69 185.25 2092.03 185.25 2074.03 .03 2038.72 .03 2021.4 183.92 2020.73 183.92 2001.41 .03 1965.77 .03 1991.74 233.22 2042.05 233.22 2055.04 108.96 2055.71 108.96 2068.71 233.22 2117.34 233.22 2143.33 .03 2111.35 .03"/>
  <polygon class="cls-2" points="1321.06 396.46 1320.39 396.46 1307.41 520.71 1257.1 520.71 1231.12 287.52 1266.77 287.52 1286.08 471.41 1286.75 471.41 1304.07 287.52 1339.39 287.52 1357.37 472.75 1358.04 472.75 1376.69 287.52 1408.67 287.52 1382.69 520.71 1334.06 520.71 1321.06 396.46"/>
  <rect class="cls-2" x="1423.15" y="287.53" width="36.64" height="233.19"/>
  <polygon class="cls-2" points="1472.89 287.53 1586.16 287.53 1586.16 320.84 1547.84 320.84 1547.84 520.71 1511.2 520.71 1511.2 320.84 1472.89 320.84 1472.89 287.53"/>
  <polygon class="cls-2" points="1636.08 520.71 1599.44 520.71 1599.44 287.53 1636.08 287.53 1636.08 387.46 1677.73 387.46 1677.73 287.53 1715.03 287.53 1715.03 520.71 1677.73 520.71 1677.73 420.77 1636.08 420.77 1636.08 520.71"/>
  <polygon class="cls-2" points="1827.62 443.43 1781.31 287.53 1819.62 287.53 1847.27 393.79 1847.94 393.79 1875.59 287.53 1910.57 287.53 1864.26 443.43 1864.26 520.71 1827.62 520.71 1827.62 443.43"/>
  <g>
    <path class="cls-2" d="m1952.67,467.08c0,16.65,7.33,22.99,18.99,22.99s18.99-6.34,18.99-22.99v-125.93c0-16.65-7.33-22.98-18.99-22.98s-18.99,6.33-18.99,22.98v125.93Zm-36.64-123.59c0-37.31,19.65-58.63,55.63-58.63s55.63,21.31,55.63,58.63v121.25c0,37.31-19.65,58.64-55.63,58.64s-55.63-21.32-55.63-58.64v-121.25Z"/>
    <path class="cls-2" d="m2080.19,287.53v179.88c0,16.66,7.33,22.66,18.99,22.66s18.99-6,18.99-22.66v-179.88h34.65v177.56c0,37.31-18.66,58.63-54.64,58.63s-54.63-21.31-54.63-58.63v-177.56h36.64Z"/>
  </g>
  <rect class="cls-2" x="2169.43" y="485.41" width="35.31" height="35.31"/>
  <path class="cls-2" d="m2173.72,288.5v5.8h6.61v26.45h6.35v-26.45h6.61v-5.8h-19.56Zm41.12,0l-4.17,22.65h-.18l-4.62-22.65h-8.78v32.25h5.53v-22.74h.18l4.62,22.74h5.98l4.08-22.93h.18v22.93h5.99v-32.25h-8.79Z"/>
</svg>